<svg width="22" height="22" viewBox="0 0 22 22" fill="none" xmlns="http://www.w3.org/2000/svg">
<mask id="mask0_1340_1120" style="mask-type:alpha" maskUnits="userSpaceOnUse" x="0" y="0" width="22" height="22">
<rect width="22" height="22" transform="matrix(-1 0 0 1 22 0)" fill="#D9D9D9"/>
</mask>
<g mask="url(#mask0_1340_1120)">
<path d="M19.2956 14.9417C19.5859 14.3153 19.8036 13.6737 19.9487 13.0167C20.0939 12.3598 20.1664 11.6875 20.1664 11C20.1664 9.73198 19.9258 8.54032 19.4446 7.42504C18.9633 6.30976 18.3102 5.33962 17.4852 4.51462C16.6602 3.68962 15.69 3.0365 14.5748 2.55525C13.4595 2.074 12.2678 1.83337 10.9998 1.83337C9.7317 1.83337 8.54004 2.074 7.42476 2.55525C6.30948 3.0365 5.33934 3.68962 4.51434 4.51462C3.68934 5.33962 3.03622 6.30976 2.55497 7.42504C2.07372 8.54032 1.83309 9.73198 1.83309 11C1.83309 12.2681 2.07372 13.4598 2.55497 14.575C3.03622 15.6903 3.68934 16.6605 4.51434 17.4855C5.33934 18.3105 6.30948 18.9636 7.42476 19.4448C8.54004 19.9261 9.7317 20.1667 10.9998 20.1667C11.6873 20.1667 12.3595 20.0941 13.0164 19.949C13.6734 19.8039 14.315 19.5862 14.9414 19.2959L19.4789 20.625C19.8303 20.732 20.1359 20.6556 20.3956 20.3959C20.6553 20.1362 20.7317 19.8306 20.6248 19.4792L19.2956 14.9417ZM18.3789 18.3792L15.4456 17.5084C15.2317 17.4473 15.014 17.4243 14.7925 17.4396C14.5709 17.4549 14.3609 17.5084 14.1623 17.6C13.6734 17.8445 13.1616 18.0278 12.6268 18.15C12.0921 18.2723 11.5498 18.3334 10.9998 18.3334C8.95254 18.3334 7.21851 17.623 5.79768 16.2021C4.37684 14.7813 3.66643 13.0473 3.66643 11C3.66643 8.95282 4.37684 7.21879 5.79768 5.79796C7.21851 4.37712 8.95254 3.66671 10.9998 3.66671C13.047 3.66671 14.781 4.37712 16.2018 5.79796C17.6227 7.21879 18.3331 8.95282 18.3331 11C18.3331 11.55 18.272 12.0924 18.1498 12.6271C18.0275 13.1618 17.8442 13.6737 17.5998 14.1625C17.4928 14.3612 17.4355 14.5712 17.4279 14.7927C17.4202 15.0143 17.447 15.232 17.5081 15.4459L18.3789 18.3792Z" fill="#5E5E5E"/>
</g>
</svg>
