<svg width="14" height="15" viewBox="0 0 14 15" fill="none" xmlns="http://www.w3.org/2000/svg">
<mask id="mask0_879_638" style="mask-type:alpha" maskUnits="userSpaceOnUse" x="0" y="0" width="14" height="15">
<rect y="0.160156" width="14" height="14" fill="#D9D9D9"/>
</mask>
<g mask="url(#mask0_879_638)">
<path d="M4.19961 12.0603V11.0103H6.47461V9.20192C6.06628 9.12414 5.68954 8.9613 5.3444 8.71338C4.99926 8.46546 4.73919 8.17136 4.56419 7.83109C3.85447 7.74359 3.26628 7.43972 2.79961 6.91948C2.33294 6.39925 2.09961 5.78923 2.09961 5.08942V4.71025C2.09961 4.4215 2.20242 4.17432 2.40805 3.96869C2.61367 3.76307 2.86086 3.66025 3.14961 3.66025H4.19961V2.26025H9.79961V3.66025H10.8527C11.1423 3.66025 11.3892 3.76307 11.5934 3.96869C11.7975 4.17432 11.8996 4.4215 11.8996 4.71025V5.06025C11.8996 5.76025 11.6663 6.37518 11.1996 6.90505C10.7329 7.43491 10.1447 7.74359 9.43503 7.83109C9.26003 8.17136 8.99996 8.46546 8.65482 8.71338C8.30968 8.9613 7.93294 9.12414 7.52461 9.20192V11.0103H9.79961V12.0603H4.19961ZM4.19961 6.63525V4.71025H3.14961V5.06025C3.14961 5.41998 3.24197 5.73838 3.42669 6.01546C3.61141 6.29255 3.86905 6.49914 4.19961 6.63525ZM6.99961 8.21025C7.48572 8.21025 7.89892 8.04011 8.23919 7.69984C8.57947 7.35956 8.74961 6.94636 8.74961 6.46025V3.31025H5.24961V6.46025C5.24961 6.94636 5.41975 7.35956 5.76003 7.69984C6.1003 8.04011 6.5135 8.21025 6.99961 8.21025ZM9.79961 6.63525C10.1302 6.49914 10.3878 6.29255 10.5725 6.01546C10.7572 5.73838 10.8496 5.41998 10.8496 5.06025V4.71025H9.79961V6.63525Z" fill="#858587"/>
</g>
</svg>
