<svg width="14" height="15" viewBox="0 0 14 15" fill="none" xmlns="http://www.w3.org/2000/svg">
<mask id="mask0_879_617" style="mask-type:alpha" maskUnits="userSpaceOnUse" x="0" y="0" width="14" height="15">
<rect y="0.160156" width="14" height="14" fill="#D9D9D9"/>
</mask>
<g mask="url(#mask0_879_617)">
<path d="M7.70039 7.86021H10.8504V6.8102H7.70039V7.86021ZM7.70039 6.1102H10.8504V5.0602H7.70039V6.1102ZM2.80039 9.2602H7.00039V8.60395C7.00039 8.32201 6.7865 8.06923 6.35872 7.84562C5.93095 7.62201 5.4424 7.5102 4.8931 7.5102C4.34379 7.5102 3.85768 7.61958 3.43477 7.83833C3.01185 8.05708 2.80039 8.31229 2.80039 8.60395V9.2602ZM4.90345 7.1602C5.19308 7.1602 5.43997 7.0571 5.64414 6.85089C5.84831 6.64468 5.95039 6.39677 5.95039 6.10714C5.95039 5.81752 5.84729 5.57062 5.64108 5.36646C5.43487 5.16229 5.18695 5.0602 4.89733 5.0602C4.6077 5.0602 4.36081 5.16331 4.15664 5.36952C3.95247 5.57573 3.85039 5.82364 3.85039 6.11327C3.85039 6.40289 3.95349 6.64979 4.1597 6.85396C4.36591 7.05812 4.61383 7.1602 4.90345 7.1602ZM2.45039 11.3602C2.16164 11.3602 1.91445 11.2573 1.70883 11.0516C1.5032 10.8459 1.40039 10.5986 1.40039 10.3096V4.00612C1.40039 3.71718 1.5032 3.47062 1.70883 3.26646C1.91445 3.06229 2.16164 2.96021 2.45039 2.96021H11.5504C11.8391 2.96021 12.0863 3.06307 12.292 3.26879C12.4976 3.47451 12.6004 3.72184 12.6004 4.01079V10.3143C12.6004 10.6032 12.4976 10.8498 12.292 11.054C12.0863 11.2581 11.8391 11.3602 11.5504 11.3602H2.45039ZM2.45039 10.3102H11.5504V4.01021H2.45039V10.3102Z" fill="#858587"/>
</g>
</svg>
